<svg width="68" height="68" viewBox="0 0 68 68" fill="none" xmlns="http://www.w3.org/2000/svg">
<g id="healthicons:money-bag-outline">
<g id="Group">
<path id="Vector" fill-rule="evenodd" clip-rule="evenodd" d="M40.7602 34.9449C40.3696 33.8398 39.6459 32.8831 38.6889 32.2064C37.7319 31.5297 36.5886 31.1665 35.4165 31.1667V29.75H32.5832V31.1667C31.0803 31.1667 29.6389 31.7637 28.5762 32.8264C27.5135 33.8891 26.9165 35.3304 26.9165 36.8333C26.9165 38.3362 27.5135 39.7776 28.5762 40.8403C29.6389 41.903 31.0803 42.5 32.5832 42.5V48.1667C31.3507 48.1667 30.3009 47.3804 29.9099 46.2782C29.8519 46.0979 29.7583 45.9311 29.6347 45.7876C29.5111 45.644 29.3599 45.5268 29.1902 45.4427C29.0205 45.3586 28.8356 45.3094 28.6465 45.298C28.4574 45.2866 28.268 45.3133 28.0894 45.3764C27.9108 45.4395 27.7466 45.5377 27.6067 45.6654C27.4667 45.793 27.3538 45.9474 27.2746 46.1195C27.1953 46.2915 27.1514 46.4777 27.1454 46.6671C27.1394 46.8564 27.1714 47.045 27.2395 47.2218C27.6301 48.3268 28.3538 49.2836 29.3108 49.9603C30.2678 50.6369 31.4111 51.0002 32.5832 51V52.4167H35.4165V51C36.9194 51 38.3607 50.403 39.4234 49.3403C40.4861 48.2776 41.0832 46.8362 41.0832 45.3333C41.0832 43.8304 40.4861 42.3891 39.4234 41.3264C38.3607 40.2637 36.9194 39.6667 35.4165 39.6667V34C36.0025 33.9999 36.574 34.1814 37.0525 34.5196C37.531 34.8578 37.8929 35.336 38.0883 35.8884C38.2135 36.2427 38.4742 36.5328 38.8132 36.6949C38.9811 36.7751 39.1631 36.8215 39.3489 36.8314C39.5347 36.8413 39.7206 36.8145 39.896 36.7526C40.0714 36.6906 40.233 36.5947 40.3713 36.4704C40.5097 36.346 40.6222 36.1956 40.7025 36.0277C40.7827 35.8599 40.8291 35.6778 40.839 35.4921C40.8489 35.3063 40.8221 35.1204 40.7602 34.9449ZM32.5832 34C31.8317 34 31.1111 34.2985 30.5797 34.8299C30.0483 35.3612 29.7498 36.0819 29.7498 36.8333C29.7498 37.5848 30.0483 38.3054 30.5797 38.8368C31.1111 39.3682 31.8317 39.6667 32.5832 39.6667V34ZM35.4165 48.1667C36.168 48.1667 36.8886 47.8682 37.42 47.3368C37.9513 46.8055 38.2498 46.0848 38.2498 45.3333C38.2498 44.5819 37.9513 43.8612 37.42 43.3299C36.8886 42.7985 36.168 42.5 35.4165 42.5V48.1667Z" fill="black"/>
<path id="Vector_2" fill-rule="evenodd" clip-rule="evenodd" d="M18.6332 12.2131C22.1097 10.5117 27.8132 8.5 34.0551 8.5C40.1666 8.5 45.7199 10.4281 49.178 12.1068L49.3735 12.2017C50.4161 12.7174 51.2576 13.2048 51.8498 13.6L46.6166 21.25C58.681 33.5835 67.9998 59.4958 34.0551 59.4958C0.110309 59.4958 9.17839 34.0538 21.3476 21.25L16.1484 13.6C16.5493 13.3379 17.0579 13.0333 17.6642 12.7103C17.9646 12.5488 18.2876 12.3821 18.6332 12.2131ZM43.2535 21.1494L47.4426 15.0252C43.5467 15.3057 38.9114 16.2208 34.4489 17.5128C31.2614 18.4337 27.7197 18.2934 24.4401 17.6885C23.6137 17.5355 22.7929 17.3531 21.9794 17.1417L24.6994 21.1466C30.529 23.222 37.4225 23.222 43.2535 21.1494ZM23.0631 23.5592C29.8844 26.1942 38.0826 26.1942 44.9039 23.5563C47.7505 26.5584 50.1322 29.9692 51.9702 33.6756C53.8856 37.5827 54.9282 41.4885 54.7582 44.8545C54.5939 48.1029 53.3161 50.8782 50.3977 52.9408C47.3561 55.0899 42.2406 56.6624 34.0536 56.6624C25.8582 56.6624 20.7186 55.1168 17.6486 52.9918C14.7091 50.9561 13.4185 48.2177 13.2357 45.0132C13.0445 41.684 14.0645 37.7981 15.9727 33.864C17.7931 30.1127 20.3332 26.5016 23.0631 23.5592ZM21.434 14.0477C22.5673 14.3848 23.7516 14.6781 24.953 14.9005C27.9988 15.4615 31.0531 15.5437 33.6598 14.7886C36.6974 13.9033 39.7869 13.2073 42.9106 12.7047C40.304 11.9198 37.2553 11.3333 34.0536 11.3333C29.1732 11.3333 24.6215 12.6948 21.434 14.0477Z" fill="black"/>
</g>
</g>
</svg>
